<svg width="47" height="47" viewBox="0 0 47 47" fill="none" xmlns="http://www.w3.org/2000/svg">
<path d="M31.3332 43.0837V35.505C31.4066 34.5712 31.2805 33.6324 30.9631 32.7511C30.6457 31.8699 30.1443 31.0663 29.4923 30.3937C35.6415 29.7083 42.104 27.3779 42.104 16.6854C42.1035 13.9512 41.0518 11.3219 39.1665 9.34164C40.0592 6.94955 39.9961 4.30549 38.9903 1.95872C38.9903 1.95872 36.6794 1.2733 31.3332 4.85705C26.8447 3.64058 22.1133 3.64058 17.6248 4.85705C12.2786 1.2733 9.96775 1.95872 9.96775 1.95872C8.96191 4.30549 8.89879 6.94955 9.7915 9.34164C7.89217 11.3366 6.83936 13.9897 6.854 16.7441C6.854 27.3583 13.3165 29.6887 19.4657 30.4525C18.8214 31.1182 18.3245 31.9122 18.0073 32.7827C17.6902 33.6532 17.5598 34.5808 17.6248 35.505V43.0837M17.6248 37.2087C7.83317 40.1462 7.83317 32.3129 3.9165 31.3337L17.6248 37.2087Z" stroke="#6D95FC" stroke-width="2" stroke-linecap="round" stroke-linejoin="round"/>
</svg>
