<svg width="47" height="47" viewBox="0 0 47 47" fill="none" xmlns="http://www.w3.org/2000/svg">
<path d="M33.2915 3.91699H13.7082C8.30038 3.91699 3.9165 8.30087 3.9165 13.7087V33.292C3.9165 38.6998 8.30038 43.0837 13.7082 43.0837H33.2915C38.6993 43.0837 43.0832 38.6998 43.0832 33.292V13.7087C43.0832 8.30087 38.6993 3.91699 33.2915 3.91699Z" stroke="#6D95FC" stroke-width="2" stroke-linecap="round" stroke-linejoin="round"/>
<path d="M31.3334 22.2664C31.5751 23.8962 31.2967 25.5607 30.5379 27.0232C29.779 28.4857 28.5783 29.6716 27.1066 30.4124C25.6349 31.1531 23.967 31.411 22.3403 31.1492C20.7136 30.8875 19.2109 30.1194 18.0458 28.9544C16.8807 27.7893 16.1127 26.2866 15.851 24.6599C15.5892 23.0331 15.847 21.3653 16.5878 19.8936C17.3286 18.4219 18.5145 17.2212 19.977 16.4623C21.4395 15.7035 23.104 15.4251 24.7338 15.6668C26.3963 15.9133 27.9354 16.688 29.1238 17.8764C30.3122 19.0648 31.0869 20.6039 31.3334 22.2664Z" stroke="#6D95FC" stroke-width="2" stroke-linecap="round" stroke-linejoin="round"/>
<path d="M34.271 12.7295H34.2897" stroke="#6D95FC" stroke-width="2" stroke-linecap="round" stroke-linejoin="round"/>
</svg>
